# xmcd CD database file
#
# Track frame offsets:
#	180
#	22876
#	46202
#	68909
#	91204
#	114027
#	138083
#	154989
#	174516
#	194082
#	215359
#	235752
#	255946
#	273731
#	295778
#
# Disc length: 4194 seconds
#
# Revision: 0
# Processed by: cddbd v1.5.2PL0 Copyright (c) Steve Scherf et al.
# Submitted via: CDex 1.51
#
DISCID=ca10600f
DTITLE=Eddie Santiago - Exitos
DYEAR=1900
DGENRE=Salsa
TTITLE0=Lluvia
TTITLE1=Que locura enamorarme de ti
TTITLE2=Tu me quemas
TTITLE3=Todo empezo
TTITLE4=Me fallaste
TTITLE5=Antidoto y veneno
TTITLE6=Me hiciste caer
TTITLE7=Una nueva oportunidad
TTITLE8=Cada vez
TTITLE9=Tu me haces falta
TTITLE10=Insaciable
TTITLE11=Jugue y perdi
TTITLE12=Hagamoslo
TTITLE13=A la vez tu y yo
TTITLE14=Manana
EXTD=
EXTT0=
EXTT1=
EXTT2=
EXTT3=
EXTT4=
EXTT5=
EXTT6=
EXTT7=
EXTT8=
EXTT9=
EXTT10=
EXTT11=
EXTT12=
EXTT13=
EXTT14=
PLAYORDER=
